<mxfile host="app.diagrams.net" modified="2021-11-05T10:54:41.882Z" agent="5.0 (Windows NT 10.0; Win64; x64) AppleWebKit/537.36 (KHTML, like Gecko) Chrome/95.0.4638.69 Safari/537.36" etag="evkWkjzC7aeHk8W--6LQ" version="15.6.8" type="github">
  <diagram id="C5RBs43oDa-KdzZeNtuy" name="Page-1">
    <mxGraphModel dx="782" dy="507" grid="1" gridSize="10" guides="1" tooltips="1" connect="1" arrows="1" fold="1" page="1" pageScale="1" pageWidth="827" pageHeight="1169" math="0" shadow="0">
      <root>
        <mxCell id="WIyWlLk6GJQsqaUBKTNV-0" />
        <mxCell id="WIyWlLk6GJQsqaUBKTNV-1" parent="WIyWlLk6GJQsqaUBKTNV-0" />
        <mxCell id="gyBnKyxXAn6dSMei3emf-1" value="Laser" style="swimlane;fontStyle=2;align=center;verticalAlign=top;childLayout=stackLayout;horizontal=1;startSize=26;horizontalStack=0;resizeParent=1;resizeLast=0;collapsible=1;marginBottom=0;rounded=0;shadow=0;strokeWidth=1;" vertex="1" parent="WIyWlLk6GJQsqaUBKTNV-1">
          <mxGeometry x="40" y="10" width="80" height="350" as="geometry">
            <mxRectangle x="230" y="140" width="160" height="26" as="alternateBounds" />
          </mxGeometry>
        </mxCell>
        <mxCell id="gyBnKyxXAn6dSMei3emf-2" value="x" style="text;align=left;verticalAlign=top;spacingLeft=4;spacingRight=4;overflow=hidden;rotatable=0;points=[[0,0.5],[1,0.5]];portConstraint=eastwest;" vertex="1" parent="gyBnKyxXAn6dSMei3emf-1">
          <mxGeometry y="26" width="80" height="26" as="geometry" />
        </mxCell>
        <mxCell id="gyBnKyxXAn6dSMei3emf-3" value="y" style="text;align=left;verticalAlign=top;spacingLeft=4;spacingRight=4;overflow=hidden;rotatable=0;points=[[0,0.5],[1,0.5]];portConstraint=eastwest;rounded=0;shadow=0;html=0;" vertex="1" parent="gyBnKyxXAn6dSMei3emf-1">
          <mxGeometry y="52" width="80" height="26" as="geometry" />
        </mxCell>
        <mxCell id="gyBnKyxXAn6dSMei3emf-4" value="vx" style="text;align=left;verticalAlign=top;spacingLeft=4;spacingRight=4;overflow=hidden;rotatable=0;points=[[0,0.5],[1,0.5]];portConstraint=eastwest;rounded=0;shadow=0;html=0;" vertex="1" parent="gyBnKyxXAn6dSMei3emf-1">
          <mxGeometry y="78" width="80" height="26" as="geometry" />
        </mxCell>
        <mxCell id="gyBnKyxXAn6dSMei3emf-7" value="vy" style="text;align=left;verticalAlign=top;spacingLeft=4;spacingRight=4;overflow=hidden;rotatable=0;points=[[0,0.5],[1,0.5]];portConstraint=eastwest;rounded=0;shadow=0;html=0;" vertex="1" parent="gyBnKyxXAn6dSMei3emf-1">
          <mxGeometry y="104" width="80" height="26" as="geometry" />
        </mxCell>
        <mxCell id="gyBnKyxXAn6dSMei3emf-8" value="color" style="text;align=left;verticalAlign=top;spacingLeft=4;spacingRight=4;overflow=hidden;rotatable=0;points=[[0,0.5],[1,0.5]];portConstraint=eastwest;rounded=0;shadow=0;html=0;" vertex="1" parent="gyBnKyxXAn6dSMei3emf-1">
          <mxGeometry y="130" width="80" height="26" as="geometry" />
        </mxCell>
        <mxCell id="gyBnKyxXAn6dSMei3emf-10" value="live&#xa;" style="text;align=left;verticalAlign=top;spacingLeft=4;spacingRight=4;overflow=hidden;rotatable=0;points=[[0,0.5],[1,0.5]];portConstraint=eastwest;rounded=0;shadow=0;html=0;" vertex="1" parent="gyBnKyxXAn6dSMei3emf-1">
          <mxGeometry y="156" width="80" height="26" as="geometry" />
        </mxCell>
        <mxCell id="gyBnKyxXAn6dSMei3emf-13" value="length" style="text;align=left;verticalAlign=top;spacingLeft=4;spacingRight=4;overflow=hidden;rotatable=0;points=[[0,0.5],[1,0.5]];portConstraint=eastwest;rounded=0;shadow=0;html=0;" vertex="1" parent="gyBnKyxXAn6dSMei3emf-1">
          <mxGeometry y="182" width="80" height="26" as="geometry" />
        </mxCell>
        <mxCell id="gyBnKyxXAn6dSMei3emf-12" value="width" style="text;align=left;verticalAlign=top;spacingLeft=4;spacingRight=4;overflow=hidden;rotatable=0;points=[[0,0.5],[1,0.5]];portConstraint=eastwest;rounded=0;shadow=0;html=0;" vertex="1" parent="gyBnKyxXAn6dSMei3emf-1">
          <mxGeometry y="208" width="80" height="26" as="geometry" />
        </mxCell>
        <mxCell id="gyBnKyxXAn6dSMei3emf-11" value="an" style="text;align=left;verticalAlign=top;spacingLeft=4;spacingRight=4;overflow=hidden;rotatable=0;points=[[0,0.5],[1,0.5]];portConstraint=eastwest;rounded=0;shadow=0;html=0;" vertex="1" parent="gyBnKyxXAn6dSMei3emf-1">
          <mxGeometry y="234" width="80" height="26" as="geometry" />
        </mxCell>
        <mxCell id="gyBnKyxXAn6dSMei3emf-9" value="r" style="text;align=left;verticalAlign=top;spacingLeft=4;spacingRight=4;overflow=hidden;rotatable=0;points=[[0,0.5],[1,0.5]];portConstraint=eastwest;rounded=0;shadow=0;html=0;" vertex="1" parent="gyBnKyxXAn6dSMei3emf-1">
          <mxGeometry y="260" width="80" height="26" as="geometry" />
        </mxCell>
        <mxCell id="gyBnKyxXAn6dSMei3emf-5" value="" style="line;html=1;strokeWidth=1;align=left;verticalAlign=middle;spacingTop=-1;spacingLeft=3;spacingRight=3;rotatable=0;labelPosition=right;points=[];portConstraint=eastwest;" vertex="1" parent="gyBnKyxXAn6dSMei3emf-1">
          <mxGeometry y="286" width="80" height="8" as="geometry" />
        </mxCell>
        <mxCell id="gyBnKyxXAn6dSMei3emf-6" value="move" style="text;align=left;verticalAlign=top;spacingLeft=4;spacingRight=4;overflow=hidden;rotatable=0;points=[[0,0.5],[1,0.5]];portConstraint=eastwest;" vertex="1" parent="gyBnKyxXAn6dSMei3emf-1">
          <mxGeometry y="294" width="80" height="26" as="geometry" />
        </mxCell>
        <mxCell id="gyBnKyxXAn6dSMei3emf-14" value="draw" style="text;align=left;verticalAlign=top;spacingLeft=4;spacingRight=4;overflow=hidden;rotatable=0;points=[[0,0.5],[1,0.5]];portConstraint=eastwest;" vertex="1" parent="gyBnKyxXAn6dSMei3emf-1">
          <mxGeometry y="320" width="80" height="26" as="geometry" />
        </mxCell>
        <mxCell id="gyBnKyxXAn6dSMei3emf-22" style="edgeStyle=orthogonalEdgeStyle;rounded=0;orthogonalLoop=1;jettySize=auto;html=1;exitX=0.5;exitY=0;exitDx=0;exitDy=0;entryX=0.5;entryY=1;entryDx=0;entryDy=0;" edge="1" parent="WIyWlLk6GJQsqaUBKTNV-1" source="gyBnKyxXAn6dSMei3emf-16" target="gyBnKyxXAn6dSMei3emf-1">
          <mxGeometry relative="1" as="geometry">
            <mxPoint x="119.36000000000001" y="381.66200000000003" as="targetPoint" />
          </mxGeometry>
        </mxCell>
        <mxCell id="gyBnKyxXAn6dSMei3emf-16" value="Ball" style="swimlane;fontStyle=2;align=center;verticalAlign=top;childLayout=stackLayout;horizontal=1;startSize=26;horizontalStack=0;resizeParent=1;resizeLast=0;collapsible=1;marginBottom=0;rounded=0;shadow=0;strokeWidth=1;" vertex="1" parent="WIyWlLk6GJQsqaUBKTNV-1">
          <mxGeometry x="40" y="390" width="80" height="86" as="geometry">
            <mxRectangle x="230" y="140" width="160" height="26" as="alternateBounds" />
          </mxGeometry>
        </mxCell>
        <mxCell id="gyBnKyxXAn6dSMei3emf-20" value="" style="line;html=1;strokeWidth=1;align=left;verticalAlign=middle;spacingTop=-1;spacingLeft=3;spacingRight=3;rotatable=0;labelPosition=right;points=[];portConstraint=eastwest;" vertex="1" parent="gyBnKyxXAn6dSMei3emf-16">
          <mxGeometry y="26" width="80" height="8" as="geometry" />
        </mxCell>
        <mxCell id="gyBnKyxXAn6dSMei3emf-105" value="move" style="text;align=left;verticalAlign=top;spacingLeft=4;spacingRight=4;overflow=hidden;rotatable=0;points=[[0,0.5],[1,0.5]];portConstraint=eastwest;" vertex="1" parent="gyBnKyxXAn6dSMei3emf-16">
          <mxGeometry y="34" width="80" height="26" as="geometry" />
        </mxCell>
        <mxCell id="gyBnKyxXAn6dSMei3emf-106" value="draw" style="text;align=left;verticalAlign=top;spacingLeft=4;spacingRight=4;overflow=hidden;rotatable=0;points=[[0,0.5],[1,0.5]];portConstraint=eastwest;" vertex="1" parent="gyBnKyxXAn6dSMei3emf-16">
          <mxGeometry y="60" width="80" height="26" as="geometry" />
        </mxCell>
        <mxCell id="gyBnKyxXAn6dSMei3emf-23" value="Target" style="swimlane;fontStyle=2;align=center;verticalAlign=top;childLayout=stackLayout;horizontal=1;startSize=26;horizontalStack=0;resizeParent=1;resizeLast=0;collapsible=1;marginBottom=0;rounded=0;shadow=0;strokeWidth=1;" vertex="1" parent="WIyWlLk6GJQsqaUBKTNV-1">
          <mxGeometry x="270" y="210" width="70" height="398" as="geometry">
            <mxRectangle x="230" y="140" width="160" height="26" as="alternateBounds" />
          </mxGeometry>
        </mxCell>
        <mxCell id="gyBnKyxXAn6dSMei3emf-140" value="r" style="text;align=left;verticalAlign=top;spacingLeft=4;spacingRight=4;overflow=hidden;rotatable=0;points=[[0,0.5],[1,0.5]];portConstraint=eastwest;rounded=0;shadow=0;html=0;" vertex="1" parent="gyBnKyxXAn6dSMei3emf-23">
          <mxGeometry y="26" width="70" height="26" as="geometry" />
        </mxCell>
        <mxCell id="gyBnKyxXAn6dSMei3emf-136" value="live&#xa;" style="text;align=left;verticalAlign=top;spacingLeft=4;spacingRight=4;overflow=hidden;rotatable=0;points=[[0,0.5],[1,0.5]];portConstraint=eastwest;rounded=0;shadow=0;html=0;" vertex="1" parent="gyBnKyxXAn6dSMei3emf-23">
          <mxGeometry y="52" width="70" height="26" as="geometry" />
        </mxCell>
        <mxCell id="gyBnKyxXAn6dSMei3emf-135" value="color" style="text;align=left;verticalAlign=top;spacingLeft=4;spacingRight=4;overflow=hidden;rotatable=0;points=[[0,0.5],[1,0.5]];portConstraint=eastwest;rounded=0;shadow=0;html=0;" vertex="1" parent="gyBnKyxXAn6dSMei3emf-23">
          <mxGeometry y="78" width="70" height="26" as="geometry" />
        </mxCell>
        <mxCell id="gyBnKyxXAn6dSMei3emf-134" value="vy" style="text;align=left;verticalAlign=top;spacingLeft=4;spacingRight=4;overflow=hidden;rotatable=0;points=[[0,0.5],[1,0.5]];portConstraint=eastwest;rounded=0;shadow=0;html=0;" vertex="1" parent="gyBnKyxXAn6dSMei3emf-23">
          <mxGeometry y="104" width="70" height="26" as="geometry" />
        </mxCell>
        <mxCell id="gyBnKyxXAn6dSMei3emf-133" value="vx" style="text;align=left;verticalAlign=top;spacingLeft=4;spacingRight=4;overflow=hidden;rotatable=0;points=[[0,0.5],[1,0.5]];portConstraint=eastwest;rounded=0;shadow=0;html=0;" vertex="1" parent="gyBnKyxXAn6dSMei3emf-23">
          <mxGeometry y="130" width="70" height="26" as="geometry" />
        </mxCell>
        <mxCell id="gyBnKyxXAn6dSMei3emf-132" value="y" style="text;align=left;verticalAlign=top;spacingLeft=4;spacingRight=4;overflow=hidden;rotatable=0;points=[[0,0.5],[1,0.5]];portConstraint=eastwest;rounded=0;shadow=0;html=0;" vertex="1" parent="gyBnKyxXAn6dSMei3emf-23">
          <mxGeometry y="156" width="70" height="26" as="geometry" />
        </mxCell>
        <mxCell id="gyBnKyxXAn6dSMei3emf-131" value="x" style="text;align=left;verticalAlign=top;spacingLeft=4;spacingRight=4;overflow=hidden;rotatable=0;points=[[0,0.5],[1,0.5]];portConstraint=eastwest;" vertex="1" parent="gyBnKyxXAn6dSMei3emf-23">
          <mxGeometry y="182" width="70" height="26" as="geometry" />
        </mxCell>
        <mxCell id="gyBnKyxXAn6dSMei3emf-141" value="timer" style="text;align=left;verticalAlign=top;spacingLeft=4;spacingRight=4;overflow=hidden;rotatable=0;points=[[0,0.5],[1,0.5]];portConstraint=eastwest;" vertex="1" parent="gyBnKyxXAn6dSMei3emf-23">
          <mxGeometry y="208" width="70" height="26" as="geometry" />
        </mxCell>
        <mxCell id="gyBnKyxXAn6dSMei3emf-142" value="points" style="text;align=left;verticalAlign=top;spacingLeft=4;spacingRight=4;overflow=hidden;rotatable=0;points=[[0,0.5],[1,0.5]];portConstraint=eastwest;" vertex="1" parent="gyBnKyxXAn6dSMei3emf-23">
          <mxGeometry y="234" width="70" height="26" as="geometry" />
        </mxCell>
        <mxCell id="gyBnKyxXAn6dSMei3emf-34" value="" style="line;html=1;strokeWidth=1;align=left;verticalAlign=middle;spacingTop=-1;spacingLeft=3;spacingRight=3;rotatable=0;labelPosition=right;points=[];portConstraint=eastwest;" vertex="1" parent="gyBnKyxXAn6dSMei3emf-23">
          <mxGeometry y="260" width="70" height="8" as="geometry" />
        </mxCell>
        <mxCell id="gyBnKyxXAn6dSMei3emf-143" value="new_target" style="text;align=left;verticalAlign=top;spacingLeft=4;spacingRight=4;overflow=hidden;rotatable=0;points=[[0,0.5],[1,0.5]];portConstraint=eastwest;" vertex="1" parent="gyBnKyxXAn6dSMei3emf-23">
          <mxGeometry y="268" width="70" height="26" as="geometry" />
        </mxCell>
        <mxCell id="gyBnKyxXAn6dSMei3emf-144" value="hit" style="text;align=left;verticalAlign=top;spacingLeft=4;spacingRight=4;overflow=hidden;rotatable=0;points=[[0,0.5],[1,0.5]];portConstraint=eastwest;" vertex="1" parent="gyBnKyxXAn6dSMei3emf-23">
          <mxGeometry y="294" width="70" height="26" as="geometry" />
        </mxCell>
        <mxCell id="gyBnKyxXAn6dSMei3emf-145" value="hittest" style="text;align=left;verticalAlign=top;spacingLeft=4;spacingRight=4;overflow=hidden;rotatable=0;points=[[0,0.5],[1,0.5]];portConstraint=eastwest;" vertex="1" parent="gyBnKyxXAn6dSMei3emf-23">
          <mxGeometry y="320" width="70" height="26" as="geometry" />
        </mxCell>
        <mxCell id="gyBnKyxXAn6dSMei3emf-146" value="move" style="text;align=left;verticalAlign=top;spacingLeft=4;spacingRight=4;overflow=hidden;rotatable=0;points=[[0,0.5],[1,0.5]];portConstraint=eastwest;" vertex="1" parent="gyBnKyxXAn6dSMei3emf-23">
          <mxGeometry y="346" width="70" height="26" as="geometry" />
        </mxCell>
        <mxCell id="gyBnKyxXAn6dSMei3emf-36" value="draw" style="text;align=left;verticalAlign=top;spacingLeft=4;spacingRight=4;overflow=hidden;rotatable=0;points=[[0,0.5],[1,0.5]];portConstraint=eastwest;" vertex="1" parent="gyBnKyxXAn6dSMei3emf-23">
          <mxGeometry y="372" width="70" height="26" as="geometry" />
        </mxCell>
        <mxCell id="gyBnKyxXAn6dSMei3emf-52" value="Gun" style="swimlane;fontStyle=2;align=center;verticalAlign=top;childLayout=stackLayout;horizontal=1;startSize=26;horizontalStack=0;resizeParent=1;resizeLast=0;collapsible=1;marginBottom=0;rounded=0;shadow=0;strokeWidth=1;" vertex="1" parent="WIyWlLk6GJQsqaUBKTNV-1">
          <mxGeometry x="150" y="10" width="80" height="554" as="geometry">
            <mxRectangle x="230" y="140" width="160" height="26" as="alternateBounds" />
          </mxGeometry>
        </mxCell>
        <mxCell id="gyBnKyxXAn6dSMei3emf-58" value="f2_power" style="text;align=left;verticalAlign=top;spacingLeft=4;spacingRight=4;overflow=hidden;rotatable=0;points=[[0,0.5],[1,0.5]];portConstraint=eastwest;rounded=0;shadow=0;html=0;" vertex="1" parent="gyBnKyxXAn6dSMei3emf-52">
          <mxGeometry y="26" width="80" height="26" as="geometry" />
        </mxCell>
        <mxCell id="gyBnKyxXAn6dSMei3emf-66" value="f2_on" style="text;align=left;verticalAlign=top;spacingLeft=4;spacingRight=4;overflow=hidden;rotatable=0;points=[[0,0.5],[1,0.5]];portConstraint=eastwest;rounded=0;shadow=0;html=0;" vertex="1" parent="gyBnKyxXAn6dSMei3emf-52">
          <mxGeometry y="52" width="80" height="26" as="geometry" />
        </mxCell>
        <mxCell id="gyBnKyxXAn6dSMei3emf-61" value="an" style="text;align=left;verticalAlign=top;spacingLeft=4;spacingRight=4;overflow=hidden;rotatable=0;points=[[0,0.5],[1,0.5]];portConstraint=eastwest;rounded=0;shadow=0;html=0;" vertex="1" parent="gyBnKyxXAn6dSMei3emf-52">
          <mxGeometry y="78" width="80" height="26" as="geometry" />
        </mxCell>
        <mxCell id="gyBnKyxXAn6dSMei3emf-57" value="color" style="text;align=left;verticalAlign=top;spacingLeft=4;spacingRight=4;overflow=hidden;rotatable=0;points=[[0,0.5],[1,0.5]];portConstraint=eastwest;rounded=0;shadow=0;html=0;" vertex="1" parent="gyBnKyxXAn6dSMei3emf-52">
          <mxGeometry y="104" width="80" height="26" as="geometry" />
        </mxCell>
        <mxCell id="gyBnKyxXAn6dSMei3emf-62" value="base_color" style="text;align=left;verticalAlign=top;spacingLeft=4;spacingRight=4;overflow=hidden;rotatable=0;points=[[0,0.5],[1,0.5]];portConstraint=eastwest;rounded=0;shadow=0;html=0;" vertex="1" parent="gyBnKyxXAn6dSMei3emf-52">
          <mxGeometry y="130" width="80" height="26" as="geometry" />
        </mxCell>
        <mxCell id="gyBnKyxXAn6dSMei3emf-53" value="x" style="text;align=left;verticalAlign=top;spacingLeft=4;spacingRight=4;overflow=hidden;rotatable=0;points=[[0,0.5],[1,0.5]];portConstraint=eastwest;" vertex="1" parent="gyBnKyxXAn6dSMei3emf-52">
          <mxGeometry y="156" width="80" height="26" as="geometry" />
        </mxCell>
        <mxCell id="gyBnKyxXAn6dSMei3emf-54" value="y" style="text;align=left;verticalAlign=top;spacingLeft=4;spacingRight=4;overflow=hidden;rotatable=0;points=[[0,0.5],[1,0.5]];portConstraint=eastwest;rounded=0;shadow=0;html=0;" vertex="1" parent="gyBnKyxXAn6dSMei3emf-52">
          <mxGeometry y="182" width="80" height="26" as="geometry" />
        </mxCell>
        <mxCell id="gyBnKyxXAn6dSMei3emf-55" value="vx" style="text;align=left;verticalAlign=top;spacingLeft=4;spacingRight=4;overflow=hidden;rotatable=0;points=[[0,0.5],[1,0.5]];portConstraint=eastwest;rounded=0;shadow=0;html=0;" vertex="1" parent="gyBnKyxXAn6dSMei3emf-52">
          <mxGeometry y="208" width="80" height="26" as="geometry" />
        </mxCell>
        <mxCell id="gyBnKyxXAn6dSMei3emf-56" value="vy" style="text;align=left;verticalAlign=top;spacingLeft=4;spacingRight=4;overflow=hidden;rotatable=0;points=[[0,0.5],[1,0.5]];portConstraint=eastwest;rounded=0;shadow=0;html=0;" vertex="1" parent="gyBnKyxXAn6dSMei3emf-52">
          <mxGeometry y="234" width="80" height="26" as="geometry" />
        </mxCell>
        <mxCell id="gyBnKyxXAn6dSMei3emf-60" value="width" style="text;align=left;verticalAlign=top;spacingLeft=4;spacingRight=4;overflow=hidden;rotatable=0;points=[[0,0.5],[1,0.5]];portConstraint=eastwest;rounded=0;shadow=0;html=0;" vertex="1" parent="gyBnKyxXAn6dSMei3emf-52">
          <mxGeometry y="260" width="80" height="26" as="geometry" />
        </mxCell>
        <mxCell id="gyBnKyxXAn6dSMei3emf-59" value="health" style="text;align=left;verticalAlign=top;spacingLeft=4;spacingRight=4;overflow=hidden;rotatable=0;points=[[0,0.5],[1,0.5]];portConstraint=eastwest;rounded=0;shadow=0;html=0;" vertex="1" parent="gyBnKyxXAn6dSMei3emf-52">
          <mxGeometry y="286" width="80" height="26" as="geometry" />
        </mxCell>
        <mxCell id="gyBnKyxXAn6dSMei3emf-67" value="type" style="text;align=left;verticalAlign=top;spacingLeft=4;spacingRight=4;overflow=hidden;rotatable=0;points=[[0,0.5],[1,0.5]];portConstraint=eastwest;rounded=0;shadow=0;html=0;" vertex="1" parent="gyBnKyxXAn6dSMei3emf-52">
          <mxGeometry y="312" width="80" height="26" as="geometry" />
        </mxCell>
        <mxCell id="gyBnKyxXAn6dSMei3emf-63" value="" style="line;html=1;strokeWidth=1;align=left;verticalAlign=middle;spacingTop=-1;spacingLeft=3;spacingRight=3;rotatable=0;labelPosition=right;points=[];portConstraint=eastwest;" vertex="1" parent="gyBnKyxXAn6dSMei3emf-52">
          <mxGeometry y="338" width="80" height="8" as="geometry" />
        </mxCell>
        <mxCell id="gyBnKyxXAn6dSMei3emf-64" value="mouse_xy" style="text;align=left;verticalAlign=top;spacingLeft=4;spacingRight=4;overflow=hidden;rotatable=0;points=[[0,0.5],[1,0.5]];portConstraint=eastwest;" vertex="1" parent="gyBnKyxXAn6dSMei3emf-52">
          <mxGeometry y="346" width="80" height="26" as="geometry" />
        </mxCell>
        <mxCell id="gyBnKyxXAn6dSMei3emf-65" value="fire2_start&#xa;" style="text;align=left;verticalAlign=top;spacingLeft=4;spacingRight=4;overflow=hidden;rotatable=0;points=[[0,0.5],[1,0.5]];portConstraint=eastwest;" vertex="1" parent="gyBnKyxXAn6dSMei3emf-52">
          <mxGeometry y="372" width="80" height="26" as="geometry" />
        </mxCell>
        <mxCell id="gyBnKyxXAn6dSMei3emf-68" value="fire2_end" style="text;align=left;verticalAlign=top;spacingLeft=4;spacingRight=4;overflow=hidden;rotatable=0;points=[[0,0.5],[1,0.5]];portConstraint=eastwest;" vertex="1" parent="gyBnKyxXAn6dSMei3emf-52">
          <mxGeometry y="398" width="80" height="26" as="geometry" />
        </mxCell>
        <mxCell id="gyBnKyxXAn6dSMei3emf-69" value="targetting" style="text;align=left;verticalAlign=top;spacingLeft=4;spacingRight=4;overflow=hidden;rotatable=0;points=[[0,0.5],[1,0.5]];portConstraint=eastwest;" vertex="1" parent="gyBnKyxXAn6dSMei3emf-52">
          <mxGeometry y="424" width="80" height="26" as="geometry" />
        </mxCell>
        <mxCell id="gyBnKyxXAn6dSMei3emf-70" value="draw" style="text;align=left;verticalAlign=top;spacingLeft=4;spacingRight=4;overflow=hidden;rotatable=0;points=[[0,0.5],[1,0.5]];portConstraint=eastwest;" vertex="1" parent="gyBnKyxXAn6dSMei3emf-52">
          <mxGeometry y="450" width="80" height="26" as="geometry" />
        </mxCell>
        <mxCell id="gyBnKyxXAn6dSMei3emf-71" value="power_up" style="text;align=left;verticalAlign=top;spacingLeft=4;spacingRight=4;overflow=hidden;rotatable=0;points=[[0,0.5],[1,0.5]];portConstraint=eastwest;" vertex="1" parent="gyBnKyxXAn6dSMei3emf-52">
          <mxGeometry y="476" width="80" height="26" as="geometry" />
        </mxCell>
        <mxCell id="gyBnKyxXAn6dSMei3emf-72" value="move" style="text;align=left;verticalAlign=top;spacingLeft=4;spacingRight=4;overflow=hidden;rotatable=0;points=[[0,0.5],[1,0.5]];portConstraint=eastwest;" vertex="1" parent="gyBnKyxXAn6dSMei3emf-52">
          <mxGeometry y="502" width="80" height="26" as="geometry" />
        </mxCell>
        <mxCell id="gyBnKyxXAn6dSMei3emf-73" value="hittest" style="text;align=left;verticalAlign=top;spacingLeft=4;spacingRight=4;overflow=hidden;rotatable=0;points=[[0,0.5],[1,0.5]];portConstraint=eastwest;" vertex="1" parent="gyBnKyxXAn6dSMei3emf-52">
          <mxGeometry y="528" width="80" height="26" as="geometry" />
        </mxCell>
        <mxCell id="gyBnKyxXAn6dSMei3emf-103" style="edgeStyle=orthogonalEdgeStyle;rounded=0;orthogonalLoop=1;jettySize=auto;html=1;exitX=0.5;exitY=0;exitDx=0;exitDy=0;entryX=0.5;entryY=1.013;entryDx=0;entryDy=0;entryPerimeter=0;" edge="1" parent="WIyWlLk6GJQsqaUBKTNV-1" source="gyBnKyxXAn6dSMei3emf-81" target="gyBnKyxXAn6dSMei3emf-73">
          <mxGeometry relative="1" as="geometry" />
        </mxCell>
        <mxCell id="gyBnKyxXAn6dSMei3emf-81" value="EnemyGun" style="swimlane;fontStyle=2;align=center;verticalAlign=top;childLayout=stackLayout;horizontal=1;startSize=26;horizontalStack=0;resizeParent=1;resizeLast=0;collapsible=1;marginBottom=0;rounded=0;shadow=0;strokeWidth=1;" vertex="1" parent="WIyWlLk6GJQsqaUBKTNV-1">
          <mxGeometry x="150" y="590" width="80" height="138" as="geometry">
            <mxRectangle x="230" y="140" width="160" height="26" as="alternateBounds" />
          </mxGeometry>
        </mxCell>
        <mxCell id="gyBnKyxXAn6dSMei3emf-82" value="R" style="text;align=left;verticalAlign=top;spacingLeft=4;spacingRight=4;overflow=hidden;rotatable=0;points=[[0,0.5],[1,0.5]];portConstraint=eastwest;rounded=0;shadow=0;html=0;" vertex="1" parent="gyBnKyxXAn6dSMei3emf-81">
          <mxGeometry y="26" width="80" height="26" as="geometry" />
        </mxCell>
        <mxCell id="gyBnKyxXAn6dSMei3emf-83" value="timer" style="text;align=left;verticalAlign=top;spacingLeft=4;spacingRight=4;overflow=hidden;rotatable=0;points=[[0,0.5],[1,0.5]];portConstraint=eastwest;rounded=0;shadow=0;html=0;" vertex="1" parent="gyBnKyxXAn6dSMei3emf-81">
          <mxGeometry y="52" width="80" height="26" as="geometry" />
        </mxCell>
        <mxCell id="gyBnKyxXAn6dSMei3emf-84" value="v" style="text;align=left;verticalAlign=top;spacingLeft=4;spacingRight=4;overflow=hidden;rotatable=0;points=[[0,0.5],[1,0.5]];portConstraint=eastwest;rounded=0;shadow=0;html=0;" vertex="1" parent="gyBnKyxXAn6dSMei3emf-81">
          <mxGeometry y="78" width="80" height="26" as="geometry" />
        </mxCell>
        <mxCell id="gyBnKyxXAn6dSMei3emf-94" value="" style="line;html=1;strokeWidth=1;align=left;verticalAlign=middle;spacingTop=-1;spacingLeft=3;spacingRight=3;rotatable=0;labelPosition=right;points=[];portConstraint=eastwest;" vertex="1" parent="gyBnKyxXAn6dSMei3emf-81">
          <mxGeometry y="104" width="80" height="8" as="geometry" />
        </mxCell>
        <mxCell id="gyBnKyxXAn6dSMei3emf-101" value="move" style="text;align=left;verticalAlign=top;spacingLeft=4;spacingRight=4;overflow=hidden;rotatable=0;points=[[0,0.5],[1,0.5]];portConstraint=eastwest;" vertex="1" parent="gyBnKyxXAn6dSMei3emf-81">
          <mxGeometry y="112" width="80" height="26" as="geometry" />
        </mxCell>
        <mxCell id="gyBnKyxXAn6dSMei3emf-107" value="Bomb" style="swimlane;fontStyle=2;align=center;verticalAlign=top;childLayout=stackLayout;horizontal=1;startSize=26;horizontalStack=0;resizeParent=1;resizeLast=0;collapsible=1;marginBottom=0;rounded=0;shadow=0;strokeWidth=1;" vertex="1" parent="WIyWlLk6GJQsqaUBKTNV-1">
          <mxGeometry x="270" y="20" width="60" height="170" as="geometry">
            <mxRectangle x="230" y="140" width="160" height="26" as="alternateBounds" />
          </mxGeometry>
        </mxCell>
        <mxCell id="gyBnKyxXAn6dSMei3emf-108" value="x" style="text;align=left;verticalAlign=top;spacingLeft=4;spacingRight=4;overflow=hidden;rotatable=0;points=[[0,0.5],[1,0.5]];portConstraint=eastwest;" vertex="1" parent="gyBnKyxXAn6dSMei3emf-107">
          <mxGeometry y="26" width="60" height="26" as="geometry" />
        </mxCell>
        <mxCell id="gyBnKyxXAn6dSMei3emf-109" value="y" style="text;align=left;verticalAlign=top;spacingLeft=4;spacingRight=4;overflow=hidden;rotatable=0;points=[[0,0.5],[1,0.5]];portConstraint=eastwest;rounded=0;shadow=0;html=0;" vertex="1" parent="gyBnKyxXAn6dSMei3emf-107">
          <mxGeometry y="52" width="60" height="26" as="geometry" />
        </mxCell>
        <mxCell id="gyBnKyxXAn6dSMei3emf-110" value="color" style="text;align=left;verticalAlign=top;spacingLeft=4;spacingRight=4;overflow=hidden;rotatable=0;points=[[0,0.5],[1,0.5]];portConstraint=eastwest;rounded=0;shadow=0;html=0;" vertex="1" parent="gyBnKyxXAn6dSMei3emf-107">
          <mxGeometry y="78" width="60" height="26" as="geometry" />
        </mxCell>
        <mxCell id="gyBnKyxXAn6dSMei3emf-111" value="r" style="text;align=left;verticalAlign=top;spacingLeft=4;spacingRight=4;overflow=hidden;rotatable=0;points=[[0,0.5],[1,0.5]];portConstraint=eastwest;rounded=0;shadow=0;html=0;" vertex="1" parent="gyBnKyxXAn6dSMei3emf-107">
          <mxGeometry y="104" width="60" height="26" as="geometry" />
        </mxCell>
        <mxCell id="gyBnKyxXAn6dSMei3emf-112" value="" style="line;html=1;strokeWidth=1;align=left;verticalAlign=middle;spacingTop=-1;spacingLeft=3;spacingRight=3;rotatable=0;labelPosition=right;points=[];portConstraint=eastwest;" vertex="1" parent="gyBnKyxXAn6dSMei3emf-107">
          <mxGeometry y="130" width="60" height="8" as="geometry" />
        </mxCell>
        <mxCell id="gyBnKyxXAn6dSMei3emf-113" value="draw" style="text;align=left;verticalAlign=top;spacingLeft=4;spacingRight=4;overflow=hidden;rotatable=0;points=[[0,0.5],[1,0.5]];portConstraint=eastwest;" vertex="1" parent="gyBnKyxXAn6dSMei3emf-107">
          <mxGeometry y="138" width="60" height="26" as="geometry" />
        </mxCell>
      </root>
    </mxGraphModel>
  </diagram>
</mxfile>
